<svg xmlns="http://www.w3.org/2000/svg" xmlns:xlink="http://www.w3.org/1999/xlink"><defs><symbol fill="none" viewBox="0 0 55 27" id="icon-logo"><path d="M48.06.824h-6.44v4.92l6.44 4.92V.823z" fill="#fff" /><path d="M50.282 26.91c-.658-.542-2.445-2.133-5.547-4.898C40.018 17.809 30.27 9.12 28.515 7.939c-.466-.204-.985-.16-1.194-.04C24.58 9.448 7.267 24.754 5.494 26.58L0 22.02c1.175-1.36 19.736-17.937 23.65-20.152C26.082.49 29.35.458 31.97 1.79c1.38.7 5.182 3.943 17.686 15.087 2.553 2.275 4.758 4.24 5.344 4.725l-4.718 5.309z" fill="#F0C630" /></symbol></defs></svg>